<mxfile host="app.diagrams.net" modified="2023-07-01T08:33:57.528Z" agent="Mozilla/5.0 (Windows NT 10.0; Win64; x64) AppleWebKit/537.36 (KHTML, like Gecko) Chrome/114.0.0.0 Safari/537.36" version="21.5.1" etag="lGwM5I66F4c5xaIFs5JU" type="github">
  <diagram name="第 1 页" id="VXCB5wkyz6DrhC-0IMIT">
    <mxGraphModel>
      <root>
        <mxCell id="0" />
        <mxCell id="1" parent="0" />
      </root>
    </mxGraphModel>
  </diagram>
</mxfile>
